<svg xmlns="http://www.w3.org/2000/svg" xmlns:xlink="http://www.w3.org/1999/xlink" width="23.91925811767578" height="23.91925048828125" viewBox="0 0 23.91925811767578 23.91925048828125" fill="none"><path id="路径 1" fill-rule="evenodd" style="fill:#C4C4C4" opacity="1" d="M11.9596 2.30239C13.2643 2.30239 14.5274 2.55821 15.717 3.06026C16.8682 3.54632 17.9011 4.24343 18.7869 5.13241C19.6758 6.02139 20.3697 7.05426 20.859 8.20226C21.361 9.39183 21.6169 10.6549 21.6169 11.9596C21.6169 13.2643 21.361 14.5274 20.859 15.717C20.3729 16.8682 19.6758 17.9011 18.7869 18.7869C17.8979 19.6758 16.865 20.3697 15.717 20.859C14.5274 21.361 13.2643 21.6169 11.9596 21.6169C10.6549 21.6169 9.39183 21.361 8.20226 20.859C7.05106 20.3729 6.01819 19.6758 5.13241 18.7869C4.24343 17.8979 3.54952 16.865 3.06026 15.717C2.55821 14.5274 2.30239 13.2643 2.30239 11.9596C2.30239 10.6549 2.55821 9.39183 3.06026 8.20226C3.54632 7.05106 4.24343 6.01819 5.13241 5.13241C6.02139 4.24343 7.05426 3.54952 8.20226 3.06026C9.39183 2.55821 10.6549 2.30239 11.9596 2.30239ZM11.9596 0C5.35305 0 0 5.35305 0 11.9596C0 18.5662 5.35305 23.9193 11.9596 23.9193C18.5662 23.9193 23.9193 18.5662 23.9193 11.9596C23.9193 5.35305 18.5662 0 11.9596 0ZM12.0108 18.643C11.3744 18.643 10.8596 18.1281 10.8596 17.4918L10.8596 6.48506C10.8596 5.84871 11.3744 5.33387 12.0108 5.33387C12.6471 5.33387 13.162 5.84871 13.162 6.48506L13.162 17.4918C13.162 18.1281 12.6471 18.643 12.0108 18.643ZM17.4854 13.2323L6.51704 13.2323C5.88068 13.2323 5.36584 12.7175 5.36584 12.0811C5.36584 11.4448 5.88068 10.9299 6.51704 10.9299L17.4854 10.9299C18.1217 10.9299 18.6366 11.4448 18.6366 12.0811C18.6366 12.7175 18.1217 13.2323 17.4854 13.2323Z"></path></svg>