<svg xmlns="http://www.w3.org/2000/svg" xmlns:xlink="http://www.w3.org/1999/xlink" width="10.23193359375" height="10.240020751953125" viewBox="0 0 10.23193359375 10.240020751953125" fill="none"><path id="路径 1" fill-rule="evenodd" style="fill:#4E4D5A" opacity="1" d="M10.15,0.08c0.07,0.07 0.1,0.18 0.07,0.28l-3.83,9.71c-0.04,0.11 -0.14,0.17 -0.24,0.17c-0.12,0 -0.21,-0.06 -0.25,-0.17l-1.62,-4.11l-4.11,-1.62c-0.11,-0.04 -0.17,-0.14 -0.17,-0.25c0,-0.1 0.06,-0.2 0.17,-0.24l9.71001,-3.83c0.09,-0.04 0.19999,-0.02 0.26999,0.06zM9.52001,0.72l-8.56001,3.37l3.61,1.43c0.07,0.03 0.12,0.08 0.15,0.15l1.41,3.60001z"></path></svg>