<svg xmlns="http://www.w3.org/2000/svg" xmlns:xlink="http://www.w3.org/1999/xlink" width="38.72003173828125" height="38.719970703125" viewBox="0 0 38.72003173828125 38.719970703125" fill="none"><g opacity="1"  transform="translate(0 0)  rotate(0)"><mask id="bg-mask-0" fill="white"><use transform="translate(0 0)  rotate(NaN)" xlink:href="#path_0"></use></mask><g mask="url(#bg-mask-0)" ><path id="路径 1" fill-rule="evenodd" style="fill:#F8D02D" opacity="1" d="M18.8333 22.0442C20.3733 22.3042 21.4133 22.4342 21.9533 22.4342C22.4933 22.4342 23.8533 23.8642 26.0333 26.7342L29.8633 29.0942C31.0933 26.3942 31.9333 25.0342 32.4033 25.0342C33.0933 25.0342 31.2132 16.2142 29.8633 12.6042C28.9633 10.2042 25.3633 9.22422 19.0633 9.68422L18.8333 22.0442Z"></path><path id="路径 2" fill-rule="evenodd" style="fill:#444444" opacity="1" d="M26.5847 11.1258C24.9176 10.1995 23.2504 10.3849 21.5826 10.5703L19.36 10.5703C18.6191 10.5703 17.8782 10.5703 17.1367 10.3849C15.2847 10.3849 13.617 10.1995 12.1352 11.1258C10.8388 11.8667 9.91193 12.9783 9.35639 14.2753C8.98625 15.0162 8.80089 15.9425 8.43014 16.6834C8.24535 17.6097 8.05999 18.7213 7.8746 19.6476C7.68924 20.5738 7.68924 21.4995 7.50388 22.6111C7.50388 23.538 7.31909 24.4636 7.50388 25.3899C7.50388 25.9454 7.68924 26.3162 7.8746 26.6863C8.61549 28.3541 10.468 28.1687 11.5797 26.8717C11.5797 26.5015 11.9498 25.9454 12.1352 25.5753C12.8761 24.0935 13.8023 22.9819 14.914 22.241C17.322 20.5738 21.2125 20.5738 23.6205 22.241C24.7322 22.9819 25.6585 24.0935 26.3994 25.5753C26.5847 25.9454 26.9549 26.5015 27.1402 26.6869C28.2519 27.9833 30.1044 28.1687 30.8453 26.5015C31.0307 26.1308 31.216 25.7606 31.216 25.2051L31.216 22.4257C31.216 21.4995 31.0307 20.5738 30.8453 19.4622C30.6599 18.5353 30.4746 17.6097 30.1044 16.498C29.919 15.5718 29.5483 14.6455 29.1775 13.9052C28.808 12.9783 27.8811 11.8667 26.5847 11.1258ZM27.8811 16.1279C27.8811 16.6834 27.3256 17.2389 26.7701 17.2389C26.214 17.2389 25.6585 16.6834 25.6585 16.1279C25.6585 15.5718 26.214 15.0162 26.7701 15.0162C27.511 15.2016 27.8811 15.5718 27.8811 16.1279ZM24.9176 17.0541C25.4731 17.0541 26.0286 17.6097 26.0286 18.1652C26.0286 18.7213 25.4731 19.2768 24.9176 19.2768C24.3614 19.2768 23.8059 18.7213 23.8059 18.1652C23.8059 17.4243 24.3614 17.0541 24.9176 17.0541ZM24.1767 16.1273C24.1767 16.6834 23.6205 17.2389 23.065 17.2389C22.5089 17.2389 21.9534 16.6834 21.9534 16.1279C21.9534 15.5718 22.5089 15.0162 23.065 15.0162C23.6205 15.2016 24.1767 15.5718 24.1767 16.1279L24.1767 16.1273ZM24.9176 13.1637C25.4731 13.1637 26.0286 13.7192 26.0286 14.2753C26.0286 14.8309 25.4731 15.3864 24.9176 15.3864C24.3614 15.3864 23.8059 14.8309 23.8059 14.2753C23.8059 13.7192 24.3614 13.1637 24.9176 13.1637ZM13.3953 13.1637C13.3953 12.793 13.3472 12.4539 13.9056 12.4199C14.6177 12.3771 14.5432 12.793 14.5432 13.1637L14.5432 15.5718L16.9519 15.5718C17.322 15.5718 17.5074 15.7571 17.5074 16.1279C17.5074 16.498 17.1373 16.8688 16.7665 16.8688L14.5432 16.8688L14.5432 19.2768C14.5432 19.6476 14.1731 20.0177 13.8023 20.0177C13.4322 20.0177 13.2468 19.6476 13.2468 19.2768L13.2468 16.8688L11.0235 16.8688C10.6534 16.8688 10.468 16.6459 10.468 16.2763C10.468 15.9055 10.8388 15.5348 11.0235 15.5348L13.4322 15.5348L13.3953 13.1637ZM17.6928 13.9046C17.322 13.9046 16.9519 13.5344 16.9519 13.3491C16.9519 12.9783 17.322 12.6082 17.6928 12.6082L21.0271 12.6082C21.3979 12.6082 21.768 12.9783 21.768 13.3491C21.768 13.7192 21.3979 13.9046 21.0271 13.9046L17.6928 13.9046ZM17.6928 19.8323C17.322 19.8323 16.9519 19.4622 16.9519 19.2768C17.1373 18.9061 17.322 18.5359 17.6928 18.5359L21.0271 18.5359C21.3979 18.5359 21.768 18.9061 21.768 19.2768C21.768 19.6476 21.3979 19.8323 21.0271 19.8323L17.6928 19.8323ZM27.6964 9.27326C29.3635 10.2001 30.4746 11.6819 31.216 13.3491C31.5862 14.2753 31.9569 15.2016 32.1417 16.1279C32.5125 17.0541 32.6978 18.1652 32.8832 19.2768C33.068 20.3884 33.2534 21.3147 33.2534 22.4257C33.2534 23.3526 33.4387 24.4636 33.4387 25.3899C33.4387 26.1308 33.2534 26.8717 32.8832 27.6132C31.7716 29.8358 29.3635 30.5767 27.1402 29.4651C26.3994 29.095 26.0286 28.7242 25.6585 28.1687C25.2877 27.6132 24.9176 27.2418 24.7316 26.6869C24.1767 25.5753 23.4352 24.649 22.5089 24.0935C20.8417 22.9819 17.8782 22.9819 16.211 24.0935C15.2841 24.649 14.7286 25.5753 13.9877 26.6863C13.8023 27.2424 13.4322 27.798 13.0614 28.1687C12.6913 28.7242 12.1352 29.095 11.5797 29.4651C8.43014 30.9475 5.46655 28.7242 5.28119 25.3899C5.28119 24.4636 5.28119 23.352 5.46655 22.4257C5.46655 21.4995 5.6519 20.3884 5.83669 19.2768C5.83669 18.1652 6.20744 17.2389 6.3928 16.1279C6.5782 15.201 6.94834 14.2753 7.31909 13.3491C8.24535 11.6819 9.35639 10.1989 11.0235 9.27326C13.2474 7.97686 15.2847 8.16222 17.322 8.34701C18.0629 8.34701 18.6185 8.53237 19.36 8.53237C20.1008 8.53237 20.6564 8.53237 21.3979 8.34701C23.6211 8.16222 25.4731 7.97686 27.6964 9.27387L27.6964 9.27326Z"></path></g></g><defs><rect id="path_0" x="0" y="0" width="38.720001220703125" height="38.720001220703125" rx="0" ry="0"/></defs></svg>