<svg xmlns="http://www.w3.org/2000/svg" xmlns:xlink="http://www.w3.org/1999/xlink" width="102.50006103515625" height="102.19998168945312" viewBox="0 0 102.50006103515625 102.19998168945312" fill="none"><g opacity="1"  transform="translate(0 0)  rotate(0)"><path id="减去顶层" fill-rule="evenodd" fill="url(#linear_1)" opacity="1" d="M1.10008 51.5C1.10008 23.5 23.8001 0.79998 51.8001 0.79998C79.8001 0.79998 102.5 23.5 102.5 51.5C102.5 79.5 79.8001 102.2 51.8001 102.2C23.8001 102.2 1.10008 79.5 1.10008 51.5ZM54.2001 10.85L54.2001 50.6L93.9501 50.6C95.1901 50.6 96.2001 51.61 96.2001 52.85C96.2001 54.09 95.1901 55.1 93.9501 55.1L51.9501 55.1C50.7101 55.1 49.7001 54.09 49.7001 52.85L49.7001 10.85C49.7001 9.60998 50.7101 8.59998 51.9501 8.59998C53.1901 8.59998 54.2001 9.60998 54.2001 10.85Z"></path><path id="圆形 1" fill-rule="evenodd" style="fill:#C0D1FF" opacity="1" d="M15.5 0C6.94 0 0 6.94 0 15.5C0 24.06 6.94 31 15.5 31C24.06 31 31 24.06 31 15.5C31 6.94 24.06 0 15.5 0Z"></path></g><defs><linearGradient id="linear_1" x1="50%" y1="0%" x2="51%" y2="67.166%" gradientUnits="objectBoundingBox"><stop offset="0" stop-color="#FFFFFF" stop-opacity="0.66" /><stop offset="1" stop-color="#94B1FF" stop-opacity="0.75" /></linearGradient></defs></svg>