<svg xmlns="http://www.w3.org/2000/svg" xmlns:xlink="http://www.w3.org/1999/xlink" width="72" height="54.54545593261719" viewBox="0 0 72 54.54545593261719" fill="none"><g opacity="0.8"  transform="translate(0 0)  rotate(0)"><mask id="bg-mask-0" fill="white"><use transform="translate(0 0)  rotate(0)" xlink:href="#path_0"></use></mask><g mask="url(#bg-mask-0)" ><path id="路径 1" fill-rule="evenodd" style="fill:#FFFFFF" opacity="1" d="M28.2067 36.8755C26.4206 36.8755 24.9726 35.4275 24.9726 33.6414C24.9726 31.8553 26.4206 30.4074 28.2067 30.4074C29.9928 30.4074 31.4408 31.8553 31.4408 33.6414C31.4408 35.4275 29.9928 36.8755 28.2067 36.8755ZM6.21919 38.1019L40.2598 38.1019L40.2598 42.8657L3.96355 42.8657C0.429272 42.8657 -0.966475 40.2826 0.982633 37.3588L24.3719 2.30099C26.3041 -0.595547 29.5531 -0.593251 31.4936 2.32051L46.9435 25.4753L42.9816 28.1178L42.663 27.6405L27.9263 5.55716L6.21919 38.1019ZM31.4408 13.7184L31.4408 29.922L24.9729 29.922L24.9729 13.7184L31.4408 13.7184ZM63.1701 32.0198C62.2292 30.3778 61.9136 28.451 62.2815 26.5947C61.3833 25.9151 60.4022 25.3525 59.362 24.9205C57.9531 26.1512 56.1515 26.8573 54.2273 26.8573C52.3364 26.8544 50.5105 26.1674 49.0867 24.9231C48.043 25.3565 47.059 25.9214 46.1585 26.6041C46.524 28.461 46.2059 30.3874 45.2628 32.0281C44.3045 33.6784 42.777 34.9222 40.9668 35.5262C40.896 36.0764 40.8602 36.6305 40.8597 37.1852C40.8606 37.741 40.8961 38.2962 40.9659 38.8476C42.7856 39.4507 44.3213 40.6998 45.2823 42.3586C46.2231 44.0006 46.5386 45.9274 46.1706 47.7837C47.0688 48.4633 48.0499 49.0259 49.0901 49.4579C50.4999 48.2272 52.3041 47.5211 54.2302 47.5211C56.1196 47.5261 57.9435 48.2136 59.366 49.457C60.4003 49.0269 61.3757 48.4671 62.2689 47.7912C61.8982 45.9293 62.2154 43.9961 63.1615 42.3503C64.1261 40.6926 65.6643 39.4455 67.4856 38.8444C67.5563 38.291 67.5924 37.7394 67.5924 37.1878C67.5924 36.6367 67.5574 36.0842 67.4871 35.5308C65.6674 34.9272 64.1317 33.6782 63.1701 32.0198ZM59.6218 20.5565C61.9573 21.3098 64.1089 22.5444 65.9378 24.1806L67.1576 25.2796L66.5678 26.8105C66.1748 27.8295 66.2594 28.9709 66.7982 29.9209C67.3557 30.8808 68.3194 31.5353 69.4172 31.6995L71.0592 31.9414L71.1416 32.3329L71.3999 33.5648C71.6527 34.7559 71.7809 35.9701 71.7822 37.1878C71.7822 38.3952 71.6545 39.603 71.4005 40.8099L71.0592 42.4381L70.662 42.4955L69.4141 42.6763C68.3168 42.8367 67.3518 43.4871 66.7914 44.444C66.2434 45.3981 66.1549 46.5484 66.5506 47.5751L67.1447 49.1071L66.8496 49.3721L65.9197 50.2073C64.0965 51.8422 61.9495 53.0749 59.6183 53.8251L58.0673 54.3239L57.8199 54.0179L57.0427 53.0573C56.3498 52.2086 55.3137 51.7132 54.2291 51.7109C53.1286 51.7147 52.0887 52.2154 51.3994 53.0734L50.373 54.3199L50.0019 54.2005L48.8332 53.8251C46.4976 53.0716 44.3458 51.8368 42.5169 50.2004L41.2974 49.1017L41.4395 48.7332L41.8872 47.571C42.2804 46.5464 42.1932 45.3969 41.6542 44.4549C41.0962 43.4956 40.1323 42.8421 39.0346 42.6789L37.3966 42.437L37.3136 42.0466L37.0525 40.8173C36.7983 39.6238 36.67 38.4069 36.6696 37.1866C36.6716 35.9695 36.7997 34.7558 37.0519 33.5651L37.3926 31.9423L37.7872 31.8832L39.0308 31.6966C40.1205 31.5338 41.0779 30.8864 41.6349 29.9358C42.1789 28.9843 42.2673 27.8391 41.876 26.8154L41.2894 25.2873L41.5827 25.0233L42.5063 24.1915C44.3359 22.5469 46.492 21.3071 48.8338 20.5533L50.3736 20.0582L50.6213 20.3599L51.3991 21.307C52.1161 22.1755 53.135 22.6675 54.2253 22.6675C55.3249 22.6629 56.3637 22.1622 57.0524 21.305L58.2332 19.8714L58.5851 20.223L59.6218 20.5565ZM57.1314 35.5549L57.1285 35.5549C56.2192 34.0079 54.2279 33.4913 52.6809 34.4009C51.1339 35.3101 50.6173 37.3014 51.5266 38.8484C52.1132 39.8532 53.192 40.4678 54.3555 40.4599C55.5189 40.4521 56.5894 39.8231 57.1624 38.8105C57.7355 37.798 57.7236 36.5564 57.1314 35.5549ZM57.4597 34.9809L57.6262 35.2642C58.6749 37.0833 58.0608 39.4078 56.2504 40.4716C54.44 41.5354 52.1105 40.9407 51.0317 39.1392C49.9618 37.3189 50.5697 34.976 52.3899 33.906C54.1123 32.8935 56.3027 33.3834 57.4399 34.9809L57.4597 34.9809ZM50.8977 43.1482C53.0222 44.3735 55.6389 44.3724 57.7623 43.1453C59.8858 41.9182 61.1932 39.6514 61.1923 37.199C61.1906 33.4075 58.1161 30.3356 54.3246 30.337C50.5335 30.3385 47.4613 33.4132 47.463 37.2044C47.464 39.657 48.7733 41.9227 50.8977 43.1482Z"></path></g></g><defs><rect id="path_0" x="0" y="0" width="72" height="54.54545593261719" /></defs></svg>