<svg xmlns="http://www.w3.org/2000/svg" xmlns:xlink="http://www.w3.org/1999/xlink" width="27.75048828125" height="32.0870361328125" viewBox="0 0 27.75048828125 32.0870361328125" fill="none"><g opacity="1"  transform="translate(0 0)  rotate(0)"><path id="椭圆 33" fill-rule="evenodd" fill="url(#linear_0)" opacity="1" d="M10.47 0C4.69 0 0 4.69 0 10.47C0 16.26 4.69 20.95 10.47 20.95C16.26 20.95 20.95 16.26 20.95 10.47C20.95 4.69 16.26 0 10.47 0Z"></path><g opacity="1"  transform="translate(4.1436767578125 1.6484375)  rotate(0)"><path id="路径 172" fill-rule="evenodd" style="fill:#000202" opacity="1" d="M6.41 30.14ZM8.15 1.7C8.24 1.74 8.34 1.77 8.44 1.77C8.69 1.77 8.9 1.63 9.01 1.41C9.17 1.1 9.04 0.71 8.73 0.56C7.99 0.19 7.21 0 6.41 0C2.88 0 0 3.74 0 8.34C0 12.07 1.9 15.34 4.63 16.36L4.63 28.35C4.63 29.34 5.43 30.14 6.41 30.14C7.39 30.14 8.19 29.34 8.19 28.35L8.19 16.36C10.92 15.34 12.82 12.07 12.82 8.34C12.82 6.53 12.39 4.8 11.56 3.35C11.45 3.16 11.23 3.03 11 3.03C10.89 3.03 10.78 3.06 10.69 3.12C10.38 3.29 10.27 3.68 10.45 3.99C11.17 5.24 11.54 6.75 11.54 8.34C11.54 11.73 9.79 14.65 7.37 15.29C7.06 15.37 6.85 15.68 6.9 16.01L6.91 16.07L6.91 28.35C6.91 28.63 6.68 28.87 6.41 28.87C6.13 28.87 5.9 28.63 5.9 28.35L5.9 16.07C5.9 16.05 5.91 16.03 5.91 15.99C5.96 15.67 5.76 15.37 5.45 15.29C3.03 14.65 1.27 11.73 1.27 8.34C1.27 4.45 3.58 1.28 6.41 1.28C7 1.28 7.59 1.42 8.15 1.7Z"></path><path  id="路径 172" style="fill:#000000; opacity:1;" d="M8.24138 1.49439C8.30391 1.52218 8.37157 1.545 8.44 1.545Q8.69094 1.545 8.80875 1.30938C8.91258 1.10817 8.83321 0.8599 8.632 0.762536Q7.55688 0.225 6.41 0.225Q5.16755 0.225 4.02784 0.853292Q2.91914 1.46449 2.05961 2.58216Q1.19474 3.70677 0.719078 5.16598Q0.225001 6.68169 0.225001 8.34Q0.225 11.0734 1.48602 13.2536Q2.73409 15.4114 4.70875 16.1492L4.855 16.2039L4.855 28.35C4.855 29.2088 5.55119 29.915 6.41 29.915C7.27432 29.915 7.965 29.2143 7.965 28.35L7.965 16.2039L8.11125 16.1492L7.965 16.2039L8.11125 16.1492Q10.0859 15.4114 11.334 13.2536Q12.595 11.0734 12.595 8.34Q12.595 5.61105 11.3647 3.46178Q11.245 3.255 11 3.255C10.9348 3.255 10.869 3.27107 10.8148 3.30721L10.8067 3.31261L10.7982 3.31728C10.5977 3.42725 10.5297 3.67924 10.6446 3.87702Q11.765 5.8222 11.765 8.34Q11.765 10.9454 10.5554 12.962Q9.33051 15.0043 7.42753 15.5075Q7.27595 15.5466 7.18777 15.6802Q7.09816 15.8159 7.12246 15.9763L7.135 16.0514L7.135 28.35Q7.135 28.6507 6.92352 28.8709Q6.70823 29.095 6.41 29.095Q6.10596 29.095 5.88879 28.872Q5.675 28.6524 5.675 28.35L5.675 16.07Q5.675 16.0387 5.6834 15.9981Q5.685 15.9904 5.685 15.99L5.685 15.9725L5.68769 15.9553C5.71933 15.7528 5.59222 15.5591 5.39377 15.5079Q3.48848 15.004 2.25972 12.9623Q1.045 10.9439 1.045 8.34Q1.045 6.87342 1.46018 5.52937Q1.86237 4.22738 2.59687 3.2188Q3.33702 2.20245 4.29972 1.64167Q5.30687 1.055 6.41 1.055Q7.36311 1.055 8.25062 1.49875L8.15 1.7L8.24138 1.49439ZM8.05861 1.90561L8.05394 1.90353L8.04937 1.90125Q7.25688 1.505 6.41 1.505Q5.42838 1.505 4.52622 2.03052Q3.64516 2.54374 2.96063 3.48371Q2.27022 4.43174 1.89013 5.66219Q1.495 6.94134 1.495 8.34Q1.495 10.8189 2.64528 12.7302Q3.77994 14.6156 5.50622 15.0721C5.92887 15.1812 6.19968 15.5935 6.1323 16.0247L5.91 15.99L6.135 15.99Q6.135 16.0365 6.12405 16.0894Q6.125 16.0848 6.125 16.07L6.125 28.35Q6.125 28.4695 6.2112 28.558Q6.29588 28.645 6.41 28.645Q6.5165 28.645 6.59898 28.5591Q6.685 28.4696 6.685 28.35L6.685 16.07L6.91 16.07L6.68806 16.107L6.67754 16.0437Q6.62733 15.7123 6.81223 15.4323Q6.99582 15.1542 7.31247 15.0725Q9.03866 14.616 10.1695 12.7305Q11.315 10.8208 11.315 8.34Q11.315 5.94253 10.2554 4.10298C10.0136 3.68655 10.1596 3.15426 10.5818 2.92272L10.69 3.12L10.5652 2.93279C10.6933 2.84737 10.846 2.805 11 2.805Q11.5045 2.805 11.7553 3.23822Q13.045 5.49138 13.045 8.34Q13.045 11.1942 11.7235 13.4789Q10.3946 15.7765 8.26874 16.5708L8.19 16.36L8.26874 16.5708L8.19 16.36L8.415 16.36L8.415 28.35C8.415 29.4629 7.52285 30.365 6.41 30.365C5.30267 30.365 4.405 29.4573 4.405 28.35L4.405 16.36L4.63 16.36L4.55125 16.5708Q2.42538 15.7765 1.09648 13.4789Q-0.225 11.1941 -0.224999 8.34Q-0.224999 6.6102 0.291235 5.02652Q0.790869 3.49376 1.70289 2.30784Q2.61966 1.11574 3.81059 0.459207Q5.05173 -0.225 6.41 -0.225Q7.66311 -0.225 8.828 0.357464C9.25702 0.565058 9.42853 1.08967 9.21124 1.51062Q8.96905 1.995 8.44 1.995C8.30861 1.995 8.17868 1.95897 8.05861 1.90561Z"></path><path id="路径 173" fill-rule="evenodd" style="fill:#000202" opacity="1" d="M6.40711 29.9874ZM8.86711 1.34735C8.98711 1.10735 8.89711 0.817349 8.65711 0.697349C7.94711 0.337349 7.18711 0.157349 6.41711 0.157349C2.96711 0.157349 0.157104 3.82735 0.157104 8.34735C0.157104 12.0574 2.07711 15.3074 4.78711 16.2574L4.78711 28.3474C4.78711 29.2474 5.51711 29.9874 6.40711 29.9874C7.30711 29.9874 8.03711 29.2474 8.03711 28.3474L8.03711 16.2574C10.7371 15.3074 12.6671 12.0574 12.6671 8.34735C12.6671 6.55735 12.2371 4.85735 11.4171 3.42735C11.2871 3.19735 10.9971 3.11735 10.7671 3.24735C10.5271 3.38735 10.4571 3.67735 10.5871 3.90735C11.3171 5.18735 11.6971 6.71735 11.6971 8.34735C11.6971 11.7974 9.89711 14.7874 7.40711 15.4374C7.16711 15.4974 7.01711 15.7474 7.05711 15.9874C7.05711 16.0174 7.06711 16.0474 7.06711 16.0674L7.06711 28.3474C7.06711 28.7174 6.76711 29.0274 6.40711 29.0274C6.03711 29.0274 5.74711 28.7174 5.74711 28.3474L5.74711 16.0674C5.74711 16.0374 5.74711 16.0074 5.75711 15.9674C5.79711 15.7274 5.63711 15.4974 5.40711 15.4374C2.91711 14.7774 1.1171 11.7974 1.1171 8.34735C1.1171 4.35735 3.48711 1.11735 6.40711 1.11735C7.02711 1.11735 7.63711 1.26735 8.22711 1.55735C8.45711 1.67735 8.75711 1.58735 8.86711 1.34735Z"></path><g opacity="1"  transform="translate(17.6080322265625 0.3807373046875)  rotate(0)"><path id="路径 174" fill-rule="evenodd" style="fill:#F4702A" opacity="1" d="M0.480997 29.8328ZM0.961994 29.3508L0.961994 0.480997C0.961994 0.214999 0.747995 0 0.480997 0C0.214999 0 0 0.214999 0 0.480997L0 29.3508C0 29.6178 0.214999 29.8328 0.480997 29.8328C0.747995 29.8328 0.961994 29.6178 0.961994 29.3508Z"></path><path  id="路径 174" style="fill:#F4702A; opacity:1;" d="M0.736995 29.3508L0.736995 0.480997C0.736995 0.339613 0.622381 0.224999 0.480997 0.224999C0.339613 0.224999 0.224999 0.339613 0.224999 0.480997L0.224999 29.3508C0.224999 29.4922 0.339613 29.6078 0.480997 29.6078C0.622934 29.6078 0.736995 29.4928 0.736995 29.3508ZM1.18699 29.3508C1.18699 29.7413 0.87146 30.0578 0.480997 30.0578C0.0910864 30.0578 -0.224999 29.7407 -0.224999 29.3508L-0.224999 0.480997C-0.224999 0.0910865 0.0910864 -0.224999 0.480997 -0.224999C0.870907 -0.224999 1.18699 0.0910865 1.18699 0.480997L1.18699 29.3508Z"></path><path id="路径 175" fill-rule="evenodd" style="fill:#F95858" opacity="1" d="M5.29277 29.8324ZM5.77378 29.3514L5.77378 0.481006C5.77378 0.215003 5.55978 0 5.29277 0C5.02677 0 4.81177 0.215003 4.81177 0.481006L4.81177 29.3514C4.81177 29.6174 5.02677 29.8324 5.29277 29.8324C5.55978 29.8324 5.77378 29.6174 5.77378 29.3514Z"></path><path  id="路径 175" style="fill:#F95858; opacity:1;" d="M5.54878 29.3514L5.54878 0.481006C5.54878 0.33962 5.43416 0.225003 5.29277 0.225003C5.15139 0.225003 5.03677 0.33962 5.03677 0.481006L5.03677 29.3514C5.03677 29.4928 5.15139 29.6074 5.29277 29.6074C5.43416 29.6074 5.54878 29.4928 5.54878 29.3514ZM5.99878 29.3514C5.99878 29.7413 5.68269 30.0574 5.29277 30.0574C4.90286 30.0574 4.58676 29.7413 4.58676 29.3514L4.58676 0.481006C4.58676 0.0910882 4.90286 -0.225003 5.29277 -0.225003C5.68269 -0.225003 5.99878 0.0910882 5.99878 0.481006L5.99878 29.3514Z"></path></g></g><path id="椭圆 34" fill-rule="evenodd" style="fill:#FFFFFF" opacity="1" d="M10.4635 3.19586C7.95346 3.19586 5.92346 6.00586 5.92346 9.47585C5.92346 12.9359 7.95346 15.7458 10.4635 15.7458C12.9635 15.7458 14.9934 12.9359 14.9934 9.47585C14.9934 6.00586 12.9635 3.19586 10.4635 3.19586Z"></path></g><defs><linearGradient id="linear_0" x1="50%" y1="0%" x2="51%" y2="100%" gradientUnits="objectBoundingBox"><stop offset="0" stop-color="#F4702A" stop-opacity="1" /><stop offset="1" stop-color="#F95858" stop-opacity="1" /></linearGradient></defs></svg>