<svg xmlns="http://www.w3.org/2000/svg" xmlns:xlink="http://www.w3.org/1999/xlink" width="25.5999755859375" height="25.5999755859375" viewBox="0 0 25.5999755859375 25.5999755859375" fill="none"><g opacity="1"  transform="translate(0 0)  rotate(0)"><mask id="bg-mask-0" fill="white"><use transform="translate(0 0)  rotate(NaN)" xlink:href="#path_0"></use></mask><g mask="url(#bg-mask-0)" ><path id="路径 1" fill-rule="evenodd" style="fill:#0A0A0A" opacity="1" d="M19.4906 23.8546L6.10877 23.8546C3.70012 23.8513 1.74832 21.8996 1.74512 19.4909L1.74512 6.10912C1.74832 3.70048 3.70012 1.74869 6.10877 1.74548L12.7997 1.74548C13.2814 1.74548 13.6724 2.13654 13.6724 2.61821C13.6724 3.09988 13.2814 3.49094 12.7997 3.49094L6.10877 3.49094C4.66411 3.49414 3.49378 4.66446 3.49058 6.10912L3.49058 19.4909C3.49378 20.9356 4.66411 22.1059 6.10877 22.1091L19.4906 22.1091C20.9353 22.1059 22.1056 20.9356 22.1088 19.4909L22.1088 12.8C22.1088 12.318 22.4996 11.9273 22.9816 11.9273C23.4636 11.9273 23.8543 12.318 23.8543 12.8L23.8543 19.4909C23.8511 21.8996 21.8993 23.8513 19.4906 23.8546ZM12.5088 13.9637C12.2775 13.9628 12.0559 13.8708 11.8921 13.7077C11.7272 13.5448 11.6344 13.3227 11.6344 13.0909C11.6344 12.8592 11.7272 12.6371 11.8921 12.4742L22.3648 2.00148C22.7087 1.68107 23.2446 1.69052 23.5769 2.02287C23.9093 2.35522 23.9187 2.89107 23.5983 3.23494L13.1255 13.7077C12.9617 13.8708 12.7401 13.9628 12.5088 13.9637ZM22.9816 3.49094L18.327 3.49094C17.8453 3.49094 17.4543 3.09988 17.4543 2.61821C17.4543 2.13654 17.8453 1.74548 18.327 1.74548L22.9816 1.74548C23.4632 1.74548 23.8543 2.13654 23.8543 2.61821C23.8543 3.09988 23.4632 3.49094 22.9816 3.49094ZM22.9816 8.14548C22.4996 8.14548 22.1088 7.75474 22.1088 7.27275L22.1088 2.61821C22.1088 2.13622 22.4996 1.74548 22.9816 1.74548C23.4636 1.74548 23.8543 2.13622 23.8543 2.61821L23.8543 7.27275C23.8543 7.75474 23.4636 8.14548 22.9816 8.14548Z"></path></g></g><defs><rect id="path_0" x="0" y="0" width="25.600000381469727" height="25.600000381469727" rx="0" ry="0"/></defs></svg>