<svg xmlns="http://www.w3.org/2000/svg" xmlns:xlink="http://www.w3.org/1999/xlink" width="22.109130859375" height="22.10906982421875" viewBox="0 0 22.109130859375 22.10906982421875" fill="none"><path id="路径 1" fill-rule="evenodd" style="fill:#FFFFFF" opacity="1" d="M17.7455 22.1091L4.36365 22.1091C1.955 22.1059 0.00320514 20.1541 0 17.7454L1.06582e-15 4.36363C0.00320514 1.95499 1.955 0.00320512 4.36365 0L11.0546 3.55271e-16C11.5363 7.10542e-16 11.9273 0.391056 11.9273 0.872726C11.9273 1.3544 11.5363 1.74545 11.0546 1.74545L4.36365 1.74545C2.91899 1.74865 1.74866 2.91898 1.74546 4.36363L1.74546 17.7454C1.74866 19.1901 2.91899 20.3604 4.36365 20.3636L17.7455 20.3636C19.1902 20.3604 20.3605 19.1901 20.3637 17.7454L20.3637 11.0545C20.3637 10.5725 20.7544 10.1818 21.2364 10.1818C21.7184 10.1818 22.1092 10.5725 22.1092 11.0545L22.1092 17.7454C22.106 20.1541 20.1542 22.1059 17.7455 22.1091ZM10.7637 12.2182C10.5324 12.2173 10.3108 12.1253 10.1469 11.9622C9.98208 11.7993 9.88928 11.5772 9.88928 11.3454C9.88928 11.1137 9.98208 10.8916 10.1469 10.7287L20.6197 0.256C20.9636 -0.0644175 21.4994 -0.054963 21.8318 0.277385C22.1641 0.609734 22.1736 1.14559 21.8532 1.48945L11.3804 11.9622C11.2165 12.1253 10.9949 12.2173 10.7637 12.2182ZM21.2364 1.74545L16.5819 1.74545C16.1002 1.74545 15.7092 1.3544 15.7092 0.872726C15.7092 0.391056 16.1002 7.10542e-16 16.5819 7.10542e-16L21.2364 3.55271e-16C21.7181 7.10542e-16 22.1092 0.391056 22.1092 0.872726C22.1092 1.3544 21.7181 1.74545 21.2364 1.74545ZM21.2364 6.39999C20.7544 6.39999 20.3637 6.00926 20.3637 5.52727L20.3637 0.872726C20.3637 0.390733 20.7544 2.30539e-08 21.2364 2.1855e-08C21.7184 2.06561e-08 22.1092 0.390733 22.1092 0.872726L22.1092 5.52727C22.1092 6.00926 21.7184 6.39999 21.2364 6.39999Z"></path></svg>