<svg xmlns="http://www.w3.org/2000/svg" xmlns:xlink="http://www.w3.org/1999/xlink" width="26" height="26" viewBox="0 0 26 26" fill="none"><path id="并集" fill-rule="evenodd" style="fill:#64C8FF" opacity="1" d="M2 6C0.9 6 0 6.9 0 8L0 24C0 25.1 0.9 26 2 26L24 26C25.1 26 26 25.1 26 24L26 2C26 0.9 25.1 0 24 0L12 0C10.9 0 10 0.9 10 2L10 6L2 6ZM24 24L24 2L12 2L12 24L15 24L15 16L21 16L21 24L24 24ZM19 9L21 9L21 7L19 7L19 5L17 5L17 7L15 7L15 9L17 9L17 11L19 11L19 9ZM2 8L2 24L10 24L10 8L2 8ZM7 10L5 10L5 12L7 12L7 10ZM7 14L5 14L5 16L7 16L7 14ZM7 18L5 18L5 20L7 20L7 18Z"></path></svg>