<svg xmlns="http://www.w3.org/2000/svg" xmlns:xlink="http://www.w3.org/1999/xlink" width="32" height="32" viewBox="0 0 32 32" fill="none"><g opacity="1"  transform="translate(0 0)  rotate(0)"><mask id="bg-mask-0" fill="white"><use transform="translate(0 0)  rotate(NaN)" xlink:href="#path_0"></use></mask><g mask="url(#bg-mask-0)" ><path id="路径 1" fill-rule="evenodd" style="fill:#EFA448" opacity="1" d="M16 6L16 8L8 8L8 6L16 6ZM16 10L16 12L8 12L8 10L16 10ZM26 6C28.2077 6 30 7.79234 30 10L30 28L20 28L20 6L26 6ZM22 25.998L28 25.998L28 10C27.9999 8.98605 27.241 8.13263 26.234 8.014L26 8L22 7.998L22 25.998Z"></path><path id="路径 2" fill-rule="evenodd" style="fill:#FF7879" opacity="0.16" d="M8 20L8 28L16 28L16 20C16 17.79 14.21 16 12 16C9.79 16 8 17.79 8 20Z"></path><path id="路径 3" fill-rule="evenodd" style="fill:#FF7879" opacity="1" d="M12 16C14.2077 16 16 17.7923 16 20L16 28L8 28L8 20C8 17.7923 9.79234 16 12 16ZM12 18C10.9861 18.0001 10.1326 18.759 10.014 19.766L10 20L10 25.998L14 25.998L14 20C13.9999 18.986 13.241 18.1326 12.234 18.014L12 18Z"></path><path id="路径 4" fill-rule="evenodd" style="fill:#EFA448" opacity="1" d="M18 0C20.2077 0 22 1.79234 22 4L22 28L2 28L2 4C2 1.79234 3.79234 4.44089e-16 6 0L18 0ZM18 2L6 2C4.98605 2.00013 4.13263 2.75901 4.014 3.766L4 4L4 26L20 26L20 4C19.9999 2.98605 19.241 2.13263 18.234 2.014L18 2Z"></path><path id="路径 5" fill-rule="evenodd" style="fill:#EFA448" opacity="1" d="M1 26C0.45 26 0 26.45 0 27C0 27.55 0.45 28 1 28L31 28C31.55 28 32 27.55 32 27C32 26.45 31.55 26 31 26L1 26Z"></path><path id="路径 6" fill-rule="evenodd" style="fill:#EFA448" opacity="1" d="M7 30C6.45 30 6 30.45 6 31C6 31.55 6.45 32 7 32L25 32C25.55 32 26 31.55 26 31C26 30.45 25.55 30 25 30L7 30Z"></path></g></g><defs><rect id="path_0" x="0" y="0" width="32" height="32" rx="0" ry="0"/></defs></svg>