<svg xmlns="http://www.w3.org/2000/svg" xmlns:xlink="http://www.w3.org/1999/xlink" width="12.959999084472656" height="12.96002197265625" viewBox="0 0 12.959999084472656 12.96002197265625" fill="none"><g opacity="1"  transform="translate(0 0)  rotate(0)"><mask id="bg-mask-0" fill="white"><use transform="translate(0 0)  rotate(-2.647518004053106e-22)" xlink:href="#path_0"></use></mask><g mask="url(#bg-mask-0)" ><path id="路径 1" fill-rule="evenodd" style="fill:#272636" opacity="1" d="M6.47997 0.826294C4.28234 0.826294 2.49445 2.57659 2.49445 4.72799C2.49445 5.71016 2.88705 7.06947 3.57158 8.45742C4.25181 9.8366 5.15175 11.1062 6.04191 11.9427C6.15526 12.0642 6.31416 12.1336 6.47997 12.1336C6.6434 12.1336 6.80093 12.0658 6.91403 11.9471C8.80677 10.1751 10.4655 6.80414 10.4655 4.72798C10.4655 2.57659 8.6776 0.826294 6.47997 0.826294ZM6.54918 11.5694L6.5349 11.5838C6.52456 11.5951 6.50664 11.6086 6.47997 11.6086C6.45156 11.6086 6.4332 11.5927 6.42477 11.5833L6.40839 11.5665C4.63479 9.90452 3.01956 6.64503 3.01956 4.728C3.01956 2.86614 4.57188 1.35142 6.47997 1.35142C8.38806 1.35142 9.9404 2.86614 9.9404 4.728C9.9404 6.65063 8.32401 9.91148 6.54918 11.5694Z"></path><path id="路径 2" fill-rule="evenodd" style="fill:#272636" opacity="1" d="M6.49322 2.29852C5.34034 2.29852 4.4024 3.23652 4.4024 4.38948C4.4024 5.54216 5.34034 6.47995 6.49322 6.47995C7.646 6.47995 8.58384 5.54216 8.58384 4.38948C8.58384 3.23652 7.646 2.29852 6.49322 2.29852ZM6.49322 5.95484C5.62989 5.95484 4.92751 5.25261 4.92751 4.38948C4.92751 3.52607 5.62989 2.82363 6.49322 2.82363C7.35645 2.82363 8.05873 3.52607 8.05873 4.38948C8.05873 5.25261 7.35645 5.95484 6.49322 5.95484Z"></path></g></g><defs><rect id="path_0" x="0" y="0" width="12.960000038146973" height="12.960000038146973" /></defs></svg>