<svg xmlns="http://www.w3.org/2000/svg" xmlns:xlink="http://www.w3.org/1999/xlink" width="35.20001220703125" height="34.85150146484375" viewBox="0 0 35.20001220703125 34.85150146484375" fill="none"><g opacity="1"  transform="translate(0 0)  rotate(0)"><mask id="bg-mask-0" fill="white"><use transform="translate(0 0)  rotate(NaN)" xlink:href="#path_0"></use></mask><g mask="url(#bg-mask-0)" ><path id="路径 1" fill-rule="evenodd" style="fill:#388CEB" opacity="1" d="M17.64 32.0132C9.73469 32.0132 3.26672 25.5453 3.26672 17.64C3.26672 9.73468 9.73469 3.26672 17.64 3.26672C25.5453 3.26672 32.0133 9.73468 32.0133 17.64C32.0133 25.6106 25.5453 32.0132 17.64 32.0132ZM17.64 5.88003C11.172 5.88003 5.88004 11.172 5.88004 17.64C5.88004 24.1079 11.172 29.3999 17.64 29.3999C24.108 29.3999 29.3999 24.1079 29.3999 17.64C29.3999 11.172 24.108 5.88003 17.64 5.88003Z"></path><path id="路径 2" fill-rule="evenodd" style="fill:#388CEB" opacity="1" d="M30.7066 30.7097C30.7066 29.9897 30.1166 29.3997 29.3966 29.3997L18.2966 29.3997C17.5766 29.3997 16.9866 29.9897 16.9866 30.7097C16.9866 31.4297 17.5766 32.0097 18.2966 32.0097L29.3966 32.0097C30.1166 32.0097 30.7066 31.4297 30.7066 30.7097Z"></path><path id="路径 3" fill-rule="evenodd" style="fill:#E78E00" opacity="1" d="M17.6399 15.092C15.4839 15.092 13.7199 13.328 13.7199 11.172C13.7199 9.01604 15.4839 7.25208 17.6399 7.25208C19.7959 7.25208 21.5599 9.01604 21.5599 11.172C21.5599 13.328 19.7959 15.092 17.6399 15.092ZM17.6399 9.14671C16.5292 9.14671 15.6799 10.0614 15.6799 11.1067C15.6799 12.152 16.5946 13.0667 17.6399 13.0667C18.6852 13.0667 19.5999 12.152 19.5999 11.1067C19.5999 10.0614 18.7505 9.14671 17.6399 9.14671Z"></path><path id="路径 4" fill-rule="evenodd" style="fill:#388CEB" opacity="1" d="M11.1066 21.6251C8.95064 21.6251 7.18665 19.8611 7.18665 17.7051C7.18665 15.5492 8.95064 13.7852 11.1066 13.7852C13.2626 13.7852 15.0266 15.5492 15.0266 17.7051C15.0266 19.8611 13.2626 21.6251 11.1066 21.6251ZM11.1066 15.6798C9.99597 15.6798 9.14663 16.5945 9.14663 17.6398C9.14663 18.7505 10.0613 19.5998 11.1066 19.5998C12.1519 19.5998 13.0666 18.6851 13.0666 17.6398C13.0666 16.5945 12.2173 15.6798 11.1066 15.6798Z"></path><path id="路径 5" fill-rule="evenodd" style="fill:#E78E00" opacity="1" d="M17.6399 28.1585C15.4839 28.1585 13.7199 26.3946 13.7199 24.2386C13.7199 22.0826 15.4839 20.3186 17.6399 20.3186C19.7959 20.3186 21.5599 22.0826 21.5599 24.2386C21.5599 26.3946 19.7959 28.1585 17.6399 28.1585ZM17.6399 22.2133C16.5292 22.2133 15.6799 23.1279 15.6799 24.1733C15.6799 25.2186 16.5946 26.1332 17.6399 26.1332C18.6852 26.1332 19.5999 25.2186 19.5999 24.1733C19.5999 23.1279 18.7505 22.2133 17.6399 22.2133Z"></path><path id="路径 6" fill-rule="evenodd" style="fill:#388CEB" opacity="1" d="M24.1732 21.6251C22.0172 21.6251 20.2532 19.8611 20.2532 17.7051C20.2532 15.5492 22.0172 13.7852 24.1732 13.7852C26.3292 13.7852 28.0932 15.5492 28.0932 17.7051C28.0932 19.8611 26.3292 21.6251 24.1732 21.6251ZM24.1732 15.6798C23.0625 15.6798 22.2132 16.5945 22.2132 17.6398C22.2132 18.7505 23.1279 19.5998 24.1732 19.5998C25.2185 19.5998 26.1332 18.6851 26.1332 17.6398C26.1332 16.5945 25.2838 15.6798 24.1732 15.6798Z"></path></g></g><defs><rect id="path_0" x="0" y="0" width="35.20000076293945" height="34.85148620605469" rx="0" ry="0"/></defs></svg>