<svg xmlns="http://www.w3.org/2000/svg" xmlns:xlink="http://www.w3.org/1999/xlink" width="32" height="32" viewBox="0 0 32 32" fill="none"><g opacity="1"  transform="translate(0 0)  rotate(0)"><mask id="bg-mask-0" fill="white"><use transform="translate(0 0)  rotate(NaN)" xlink:href="#path_0"></use></mask><g mask="url(#bg-mask-0)" ><g opacity="1"  transform="translate(0.260009765625 2.8037109375)  rotate(0)"><path id="矩形 1 (轮廓)" fill-rule="evenodd" style="fill:#FF7879" opacity="1" d="M22.0244 25.4557L24.4244 25.4557L24.4244 18.2557C24.4244 15.6057 22.2744 13.4557 19.6244 13.4557C16.9744 13.4557 14.8244 15.6057 14.8244 18.2557L14.8244 25.4557L17.2244 25.4557L17.2244 18.2557C17.2244 16.9257 18.2944 15.8557 19.6244 15.8557C20.9544 15.8557 22.0244 16.9257 22.0244 18.2557L22.0244 25.4557Z"></path><path id="三角形 1 (轮廓)" fill-rule="evenodd" style="fill:#4B81EE" opacity="1" d="M4.51001 26.36L27.62 26.36C30.86 26.36 32.88 22.86 31.26 20.05L20.26 1.02C19.45 -0.41 17.35 -0.32 16.65 1.17L4.51001 26.36ZM27.62 23.96C29.01 23.96 29.87 22.46 29.18 21.26L18.52 2.81L8.33001 23.96L27.62 23.96Z"></path><path id="三角形 1" fill-rule="evenodd" style="fill:#DBE6FC" opacity="1" d="M11.7717 25.1517C12.2217 25.1517 12.5117 24.6917 12.3117 24.2917L7.48171 14.4017C7.05171 13.5117 5.77172 13.5017 5.33172 14.3917L0.271721 24.2817C0.0617214 24.6917 0.351721 25.1517 0.81172 25.1517L11.7717 25.1517Z"></path><path id="三角形 1 (轮廓)" fill-rule="evenodd" style="fill:#4B81EE" opacity="1" d="M1.8 26.3564L12.77 26.3564C14.1 26.3564 14.97 24.9664 14.39 23.7663L9.55002 13.8763C8.69002 12.0863 6.14001 12.0763 5.25001 13.8563L0.2 23.7263C-0.410001 24.9364 0.460001 26.3564 1.8 26.3564ZM11.81 23.9563L7.40001 14.9263L2.78001 23.9563L11.81 23.9563Z"></path></g></g></g><defs><rect id="path_0" x="0" y="0" width="32" height="32" rx="0" ry="0"/></defs></svg>