<svg xmlns="http://www.w3.org/2000/svg" xmlns:xlink="http://www.w3.org/1999/xlink" width="32" height="32" viewBox="0 0 32 32" fill="none"><g opacity="1"  transform="translate(0 0)  rotate(0)"><mask id="bg-mask-0" fill="white"><use transform="translate(0 0)  rotate(NaN)" xlink:href="#path_0"></use></mask><g mask="url(#bg-mask-0)" ><path id="路径 1" fill-rule="evenodd" style="fill:#A6A6A6" opacity="1" d="M27.9666 15.3167C27.9666 8.32669 22.2966 2.66669 15.3166 2.66669C8.32663 2.66669 2.66663 8.32669 2.66663 15.3167C2.66663 22.2967 8.32663 27.9667 15.3166 27.9667C16.5666 27.9667 17.8066 27.7767 19.0066 27.4167C19.5366 27.2467 19.8266 26.6967 19.6666 26.1667C19.5066 25.6467 18.9566 25.3467 18.4266 25.5067C17.4166 25.8067 16.3666 25.9667 15.3166 25.9667C9.43663 25.9667 4.66663 21.1967 4.66663 15.3167C4.66663 9.43669 9.43663 4.66669 15.3166 4.66669C21.1966 4.66669 25.9666 9.43669 25.9666 15.3167C25.9666 18.1067 24.8566 20.7467 22.9266 22.7267C22.4866 23.1867 22.4966 23.9067 22.9366 24.3567L27.6266 29.0367C28.0166 29.4267 28.6466 29.4267 29.0366 29.0367C29.4266 28.6467 29.4266 28.0167 29.0366 27.6267L24.9266 23.5067C26.8666 21.2367 27.9666 18.3567 27.9666 15.3167Z"></path></g></g><defs><rect id="path_0" x="0" y="0" width="32" height="32" rx="11" ry="11"/></defs></svg>